<?xml version="1.0" standalone="no"?>
<!DOCTYPE svg PUBLIC "-//W3C//DTD SVG 20010904//EN"
 "http://www.w3.org/TR/2001/REC-SVG-20010904/DTD/svg10.dtd">
<svg version="1.0" xmlns="http://www.w3.org/2000/svg"
 width="1000.000000pt" height="1000.000000pt" viewBox="0 0 1000.000000 1000.000000"
 preserveAspectRatio="xMidYMid meet">

<g transform="translate(0.000000,1000.000000) scale(0.100000,-0.100000)"
fill="#000000" stroke="none">
<path d="M2476 8278 c-3 -13 -19 -149 -36 -303 -18 -154 -45 -395 -61 -535
-16 -140 -34 -295 -40 -345 -5 -49 -18 -164 -29 -255 -10 -91 -31 -268 -45
-395 -14 -126 -147 -1201 -296 -2388 -148 -1186 -269 -2191 -269 -2232 0 -67
3 -79 25 -100 l24 -25 3251 0 3251 0 24 25 c22 21 25 33 25 100 0 41 -119
1028 -265 2193 -145 1164 -289 2335 -320 2602 -30 267 -59 521 -65 565 -5 44
-34 298 -65 565 -61 537 -63 553 -75 548 -4 -2 -95 -87 -201 -189 -107 -102
-286 -272 -399 -379 -309 -292 -573 -542 -685 -650 -55 -53 -151 -144 -213
-203 l-113 -107 -899 0 -899 0 -113 107 c-62 59 -156 148 -208 198 -95 91
-329 314 -700 665 -107 101 -282 268 -388 370 -107 102 -198 186 -203 188 -4
2 -10 -7 -13 -20z m539 -1040 c152 -226 277 -416 278 -422 3 -14 -456 -186
-467 -175 -2 2 -18 141 -35 309 -18 168 -41 388 -51 489 -23 213 -23 211 -10
211 5 0 133 -185 285 -412z m4214 -94 c-29 -274 -53 -501 -55 -503 -3 -3 -359
121 -442 155 l-32 13 266 398 c251 374 303 448 311 440 1 -2 -20 -228 -48
-503z m-3649 -2425 c145 -23 290 -127 357 -254 17 -33 39 -97 49 -143 15 -71
16 -93 6 -159 -53 -338 -411 -527 -711 -376 -370 186 -368 709 2 887 105 51
187 63 297 45z m3060 -16 c104 -28 216 -114 281 -214 96 -151 96 -368 -1 -517
-97 -151 -243 -233 -415 -234 -99 -1 -178 21 -266 72 -84 50 -135 107 -181
200 -97 202 -61 418 96 570 136 132 301 174 486 123z"/>
</g>
</svg>
